# xmcd
#
# Track frame offsets:
#	150
#	26730
#	40430
#	53667
#	59832
#	79347
#	95992
#	111670
#	129905
#	143355
#	156170
#	175472
#	187927
#	203350
#	218972
#
# Disc length: 3014 seconds
#
# Revision: 1
# Processed by: cddbd v1.5.1PL0 Copyright (c) Steve Scherf et al.
# Submitted via: CDex 1.50Beta5
#
DISCID=dc0bc40f
DTITLE=ダークダックス - アダージォ〜ダークダックス結成50周年記念
DYEAR=2001
DGENRE=Pop
TTITLE0=アダージォ
TTITLE1=北上川讃歌
TTITLE2=慕情 Love is a many splendored thing
TTITLE3=ラブ・ミー・テンダー Love me tender
TTITLE4=つる
TTITLE5=灯
TTITLE6=合唱組曲《ガラスのうさぎ》より、序章
TTITLE7=合唱組曲《サーブ・愛の物語》より、愛のテーマ
TTITLE8=城ヶ島の雨
TTITLE9=波浮の港
TTITLE10=芭蕉布
TTITLE11=ムーロムの小径 Along the Murom path
TTITLE12=愛のこだま Echo
TTITLE13=甘い苺 Sweet berry
TTITLE14=冬の別れ oh you,winter
EXTD=
EXTT0=
EXTT1=
EXTT2=
EXTT3=
EXTT4=
EXTT5=
EXTT6=
EXTT7=
EXTT8=
EXTT9=
EXTT10=
EXTT11=
EXTT12=
EXTT13=
EXTT14=
PLAYORDER=
